<?xml version="1.0" encoding="UTF-8"?>
<svg id="svg1" xmlns="http://www.w3.org/2000/svg" xmlns:svg="http://www.w3.org/2000/svg" xmlns:sodipodi="http://sodipodi.sourceforge.net/DTD/sodipodi-0.dtd" xmlns:inkscape="http://www.inkscape.org/namespaces/inkscape" version="1.1" viewBox="0 0 480.1 424.1">
  <!-- Generator: Adobe Illustrator 29.7.1, SVG Export Plug-In . SVG Version: 2.1.1 Build 8)  -->
  <defs>
    <style>
      .st0 {
        fill: none;
      }
    </style>
  </defs>
  <sodipodi:namedview id="namedview1" bordercolor="#111111" borderopacity="1" inkscape:current-layer="layer1" inkscape:cx="397.11781" inkscape:cy="561.25984" inkscape:deskcolor="#d1d1d1" inkscape:document-units="mm" inkscape:pagecheckerboard="1" inkscape:pageopacity="0" inkscape:showpageshadow="0" inkscape:window-height="1009" inkscape:window-maximized="1" inkscape:window-width="1920" inkscape:window-x="-8" inkscape:window-y="-8" inkscape:zoom="0.66101291" pagecolor="#ffffff"/>
  <g id="_x3C_defs">
    <inkscape:path-effect id="path-effect389" attach_start="0.046981029" effect="taper_stroke" end_offset="0.30415874" end_shape="center | center" end_smoothing="0.5" is_visible="true" jointype="extrapolated" lpeversion="1" miter_limit="100" start_shape="center | center" start_smoothing="0.5" stroke_width="1.1" subpath="1"/>
  </g>
  <g id="layer1" inkscape:groupmode="layer" inkscape:label="Capa 1">
    <g id="g388">
      <path id="path378" d="M114.2,296.5c11.4,2,22.6,4,28.7,6.7,9.3,4.2,31.3,14.2,43.3,15.2-21.9-18.8-23-24.8-34.8-58.8,2.6,26.5-10.6,37.7-37.1,36.9h0Z" sodipodi:nodetypes="csccc"/>
      <path id="path379" d="M77.2,244.2c9.8,6.4,17.6,9.3,22.2,19.3,4.6,9.8,9.1,13.4,19.6,14.6-7.5-23.2,2.7-41.8,9.7-57.6-15.2,4.8-26.3,23.5-27.5,28.1-8-6-16-6.2-24-4.4h0Z" sodipodi:nodetypes="cscccc"/>
      <path id="path380" d="M121.5,178.2c-20.8,8.6-22.1,19.4-47.4,22.8-6.8,12-12.8,17.6-18.1,17.8,6.8,4.2,13,9,29,4.1,5.7-10.2,11.1-18.7,18.4-24.9,7.6-6.5,14.4-12.1,18.1-19.9h0Z" sodipodi:nodetypes="ccccsc"/>
      <path id="path381" d="M128.8,93.3c-28.5,0-34.7-20.6-54.8-10.4,0,0,15.6.3,20.9,9.8-10.5-2.7-25,2.8-25,2.8,10.7,2.5,18.1,3.5,23.6,6.2,0,0-5.9,6-12.5,14.7,16.3-1.9,13.4-11,47.9-23.2h0Z" sodipodi:nodetypes="ccccccc"/>
      <path id="path382" d="M202.8,41.8c2.5,20.4-19.8,38.8-51.7,57.3-24.3,14.1-44.5,39.3-58.3,68.2,21.8-22.5,64.1-53.6,78-63.3,19.7-13.7,31.5-23.1,62.7-35.7l7.6-6.4c-19.1-3.7-28.8-12.6-38.2-20.1h-.1Z" sodipodi:nodetypes="cscsccc"/>
      <path id="path383" d="M247.9,21.6c.7-3.4-.4-6.1-5.6-7.2-2.9-.9-31.4,22.2-28.8,20.8,2.4-1.3,35.8-14.8,34.4-13.6h0Z" sodipodi:nodetypes="ccsc"/>
      <path id="path384" d="M264.1,30.2l.6-5.3s7.3-7.5,10.7-5.4c14.1,8.9,16.6,15.3,25.9,21.8,6.2,4.4,20.3,4,20.3,3.2,0,0-2.4,3.6-3.2,3.8-9,2-15.1,3-21.5,1.3-.7-.2-14.9-16.7-25-19.9-2.5-.8-7.8.4-7.8.4h0Z" sodipodi:nodetypes="ccsscsssc"/>
      <path id="path385" d="M253.5,329.9c4.3,13,6.6,28.5,23.7,25.7,3.8,10.9,9.2,17.3,18.4,13.5-3.6.7,13.6,29.1,17.8,20.2,2.4-5,7.3-20.4,8.5-19.9,4.8,3.7,13.3-4.2,22.8-15.2-38.4,9.3-66-5-91.3-24.3h.1Z" sodipodi:nodetypes="cccsccc"/>
      <path id="path386" d="M250.1,66.8l-4.9,5c11.6.9,10.9,3.1,15.9,3.9-10,13.2-18.2,26.1-23.8,38.7-8.4,8-18,6-39.1,17.6-7.5,4.1-13,8.4-18.6,11-7.7,3.5-15.7,5.9-23,14.1-12.3,13.9-19.4,28-26.3,39.5-2.1,3.4-3,7.3-2.1,14.7,7.5-7.1,13.3-11.1,18.6-21.9,4.8-9.8,9.1-18.3,21.2-26.3,13.9-9.2,25.6-14,40.2-17.5,6.9-1.6,21.1-2.9,21.1-2.9-1.7,8.1-3.3,16.8-9.9,22.1-21.5,17.4-41.2,20.1-49,36-9.4,19.2,1.3,31.9,14.3,55.4-5.6-19.6-5.3-39.1,7.9-54.2,15.9-18.3,28.1-12.9,41.2-33.7,11-17.6,19.8-28.2,22.7-46.1,2-12.4,2.9-23,9.3-33.1,3-4.7,12.6-9.4,17.9-9.6,2.5,0,3.2-3,4.4-5.6-14.4,1.1-29.2-5.3-38.1-7h.1Z" sodipodi:nodetypes="ccccsssscssscsscssssscc"/>
      <path id="path387" d="M362.3,100.6c4.2.4,8.6,0,8.6,0,0,0-4.1-1.6-8.4-2-39.3-3.8-76.7,1.1-107.4,11.8-10.5,3.7-19.4,8-26.6,12.3-6.9,4.1-11.1,7.3-11.1,7.3,0,0,4.5-2.8,11.6-6.4,7.6-3.8,16.3-7.5,26.8-11.2,30.4-10.6,67.5-15.5,106.5-11.7h0Z" inkscape:original-d="m 985.69969,777.36197 c -31.11921,-3.97126 -60.35944,2.80128 -78.71099,15.07034" inkscape:path-effect="#path-effect389" sodipodi:nodetypes="cc"/>
      <path id="path388" d="M175.3,77.4c-.5-.5-15.8,1-21.3,2.1-7.4,1.5-13.9,2.7-23.2,2.7s-13.8-1-23.9-5.5c-14.8-6.6-22.8-7.5-35.3-4.2-13,3.4-30.9,11.4-34.1,15.2-1.3,1.6-1.3,3.2,0,4.1h0c.5.5,1.2.8,1.5.8s2.3-1,4.4-2.3c7.6-4.4,23.3-10.5,32.1-12.3,11-2.3,17.7-1.2,38.5,6.2,8.8,3.2,16.2,4.1,27.1,3.4,12.7-.8,20.2-2.5,29.1-6.7,4.1-2,5.6-3,5.1-3.5ZM234.5,8.3c-6.3,0-13.7,2.6-18.8,6.7-1.3.9-4.2,4.1-6.5,7-2.3,3-4.5,5.3-4.9,5.3-1.3,0-25.4,5.8-29.9,7.2-9,2.8-17.6,6.7-25,11.5-4.3,2.8-4.5,2.9-5.8,2.3-3-1.3-10.4-3.9-14.3-4.9-7.2-1.9-13-2.7-19.8-2.4-7.5.3-10,1.1-20.4,6.3-18.9,9.5-39.5,21.9-61.5,37.1-15.3,10.6-21.5,15.7-24.1,19.7-2.5,4-4.1,10.2-3.3,13,0,0,0,0,0,0,.7,1.8,1.6,1.4,2.7-1.1,1.7-3.9,5.8-9.6,9.3-12.8,7-6.3,33.2-24.2,52.4-35.7,12.9-7.7,30.6-17.2,35.9-19.1,6.8-2.5,14.1-2.6,24.4-.4,4.1.9,14.2,4.2,15.2,4.9.2.2,1.1.6,2,.9,2,.7,2.3.8,11.5,4.9,10.2,4.5,10.4,4.5,11.5,3.5.5-.5.9-.5.9-2.1s-1.4-2.6-9.2-6.1l-5.7-2.6,2.8-1.8c3.5-2.2,10.5-5.7,14.8-7.4,8.9-3.5,31.7-9.7,30.5-8.3-.6.7-2.2,3.9-2.2,4.4s-.6.2,1.8.2,6.2-1.8,8.7-4.2c4.1-4,6.1-7.5,10.2-12.2,3.1-3.6,6.7-5.9,12.7-8.2,4.9-1.9,7.8-3.3,8.2-4,.7-1.1,2.2-1.6-4.1-1.6ZM164.9,123.8c-7.1,3.5-16.7,10.8-22,16.5-2.5,2.6-5.3,6.9-5.3,7.9h0c0,.4.9-.4,1.9-1.6,1.1-1.2,4.5-4.3,7.6-6.8,3.1-2.5,8.4-6.9,11.7-9.7s6.8-5.6,7.8-6.3c2.7-1.8,1.8-1.8-1.7,0ZM161.8,139.8c-1.6,0-11,6.3-16.1,10.7-5.8,5-13.9,15-15.3,18.9h0l-.5,1.3,1.4-1.6c7.1-7.9,21.9-22.3,27.4-26.7,1.8-1.4,4.6-2.6,3-2.6ZM148,159.2c-9.2,7.7-18.5,20.9-20.6,29h-.1c-.2,1.1-.2,1.2.3.4.3-.5,1.8-2.7,3.3-4.9,4.1-6,13.4-18,18.5-23.9,4.6-5.3,4.3-5.4-1.4-.6ZM268.8,385.7c-5.9-3.9-11-8.2-18.1-15-4.7-4.5-5.8-5.8-7.4-9-2.7-5.1-5-8.5-10.7-16.1-2.7-3.6-7.4-10.2-10.5-14.7-3.1-4.5-5.8-8.3-6.1-8.6s-.8-2.1-1.1-4.1c-1.3-8.1-2.8-15.7-3.3-16.3-.8-.9-2.1-.7-2.9.4-.9,1.4-.9,6.2,0,11.5.8,4.3,4.5,21.1,5,22.4.3.5.2.8,0,.8-.8,0-15.1-32.9-18-41.5-1.1-3.1-2.5-7.9-3.2-10.7-.7-2.9-1-4.8-1.9-5.8-.9-1-3.1-.8-3.7.2-.3.4-.5,3.1-.5,5.8s-.2,5.1-.4,5.2c-.4.3-4.3-16.2-5.5-23.4-.7-4.3-1-5.6-1.8-6.2-.5-.4-.1-.8-1.3-.8s-2.5,2.2-4.5,7.5l-2.2,5.9v-6.5c0-4.1.3-9,.9-13.3,1.5-11.3,1.6-12.7.5-13.3-1.5-.8-2.2-.2-3.7,2.8-2.8,5.7-4.3,17-3.9,29.4.4,12.7,1.2,16.4,3.5,17.4,1.1.4,1.5.4,2.4-.2.6-.4,1.2-1.1,1.3-1.7,0-.6.5-2.5.9-4.2.4-1.7,1.2-5.1,1.9-7.6l1.2-4.5,1.7,7.9c2.5,11.5,4.9,20.7,5.9,22.8.6,1.1,1.4,2.1,2.2,2.4,2.7,1.1,4.1-1.2,4.1-6.8v-2.9l1.7,5c4.3,12,11.5,26.3,19,37.4,1,1.5,1.7,2.8,1.7,2.8,0,.1-2.1-.8-4.6-2-2.4-1.2-6.6-2.9-9.2-3.8-4.8-1.7-4.9-1.9-1.4-2.4,2.6-.4,5-.6,5-2.2s-1.8-2.9-6.6-4.6c-2.7-1-6.9-2.5-9.5-3.5-2.5-1-7.4-2.5-10.8-3.4-3.4-.9-10.2-2.7-15-4-14-3.8-28.8-6.1-39.3-6.1s-24.9,2.1-34.5,4.7c-2.3.6-4.2,1-4.2,1,0,0,2.6-2.1,5.9-4.6,6.8-5.2,11.6-9.2,11.6-9.7s-3.5-.5-7.8-.7c-9.4-.4-17.9.2-24.9,1.8-2.8.6-5,1.1-5.2,1.1s3.6-2.6,8.3-5.8c11.4-7.7,16.9-11.8,16.9-12.6s-.8-.7-3.5-.7c-12.6-.4-24.7.9-36.8,4-2.4.6-4.3,1.2-4.6.9s16.2-10.9,23.6-15.1c6-3.3,14.5-7.3,20.5-9.5,7.2-2.6,7.4-2.8,3.7-4.5-2.5-1.2-8.3-2.3-17.5-3.6-3.7-.5-8.8-1.3-11.3-1.8s-7.9-1.5-12.1-2.1c-8.5-1.3-15.2-2.9-17.5-4.1l-1.5-.8,5.4-.3c3-.1,7-.6,9-1,8.8-1.8,22-5.6,26.8-7.7,1.3-.6,3.4-1.2,4.6-1.4,2.4-.4,3.9-1.2,3.4-1.9-.7-1.2-9-2-34.8-3.3-11.6-.6-21.2-1.4-21.6-1.8,0-.2,1.3-1,3.2-1.8,12.9-5.6,27.7-15.4,41.7-27.7,10-8.9,11.9-10.4,18.5-14.7,4.2-2.7,5.7-3.9,5.6-4.5,0-.7-.6-.7-2.5-.7-4,0-11.1,4-18.7,10.2l-3.5,2.9-12.1,1.7c-6.6,1-14.7,2.2-17.9,2.8s-6,1-6,1c0,0,2.5-2,5.6-4.3,17.7-13,51.7-41.9,62.6-53.1,6.6-6.7,10.6-12.4,8.2-11.6-2.5.8-12.5,8.2-18.6,13.6-2.3,2.1-4.6,4.1-5.1,4.5-1,.8,3.5-5.5,8.9-12.6,6-7.9,13.9-14.9,31.9-28.4,5.7-4.3,6.8-5.3,5.9-5.4-2.5-.4-13.7,4.7-20.6,9.3-6.7,4.5-17,14.2-20.1,19-.6,1-1.3,1.2-5.2,1.7-7.3,1-21.2,1.3-24.8.7-7.2-1.3-16.3-5-22.9-9.4-3.8-2.6-5.7-4.2-11.6-9.8-5.4-5.2-6.8-6.2-8.8-6.2-3,0-5.3,4.5-2.8,5.4.5.2,1.2.3,1.5.2.3,0,3.4,2.7,7,6.3,6.9,7,11.7,10.5,19,14.2,10.7,5.4,21,7.2,34.6,6.1,3.3-.4,6.2-.4,6.2-.4,0,.1-.8,1.2-1.9,2.4-3.6,3.8-6.4,7.8-10.8,15.1l-4.2,7-13.2,11.3c-7.2,6.3-16,13.5-19.4,16.2-7.8,6.1-15.7,13.3-15.7,14.4s2.1.3,4.6.5c7,.5,21.7-1.9,34.6-5.6,2.6-.8,4.9-1.2,4.9-1.2.2.2-7.1,6-12.1,9.6-2.1,1.5-8.9,5.8-15.1,9.6-6.2,3.8-12.8,7.8-14.7,9-1.9,1.2-3.8,2.3-4.3,2.6-.6.3-.9.7-.9,1.8s.3,1.5,2,2.3c4.2,2,15.1,3.5,28.8,4,4.7.2,8.5.4,8.5.5,0,.1-3.9,1-8.4,2-9.7,2.1-15.1,3.5-16.8,4.3-.7.3-1.2.6-2.4.6s-2.1,1.2-2.1,2.5,3.3,4.3,6.5,5.9c3.6,1.8,9.3,3.3,17.4,4.7,6.9,1.1,19.1,2.6,26.2,3,4.1.3,5,.4,4.1.8-.7.3-4.4,2.1-8.4,4-12,5.9-24,13.9-31.2,21-4,3.9-4.8,5.4-3.6,7.2,1,1.5,2.1,1.4,11.8-.7,8.2-1.8,24.8-4.7,25.6-4.4.3,0-1.7,1.6-4.4,3.5-2.6,1.8-7,5.5-9.7,8.1-4,3.9-4.9,5-4.9,6.1,0,3.1,3.3,3.9,9.6,2.1,3.2-.9,23.8-5,25.1-5s-.4.7-1.7,1.6c-5.2,3.5-11.9,10.6-11.9,12.7s2.3,3.8,3.4,3.8,3.5-.7,6.9-1.6c20.9-5.3,37.7-6.1,57.6-2.7,8.9,1.5,30.5,7,36.4,9.2,8.5,3.3,8.3,2.9,2.8,3.8-5.7.9-7.9,1.5-7.9,2.9s.9,1.8,7,3c7.7,1.6,17,4.7,27.7,9.5,10.3,4.5,17,8,23.3,11.9,4.9,3,6.3,4.5,9.5,10.2,2.5,4.5,5.5,7.8,12.6,14.3,7.9,7.2,15.7,12.5,19.8,13.5h0c.8.1,1.6.3,1.6.3.7.2,1.9-.3,1.9-2s-2.2-3.9-7.5-7.5ZM224.1,347.4c-2.2-1.4-4.4-2.8-4.7-3-.4-.2-.9-2.2-1.4-4.9-.5-2.5-.8-4.6-.7-4.6s1.6,2,3.4,4.6c1.8,2.6,4.3,5.9,5.5,7.5h0c1.3,1.5,2.1,2.9,2.1,2.9,0,.1-2-1-4.2-2.5ZM477.9,112c-1.5-3.2-6.3-7.8-10.1-9.6-5.8-2.8-13.8-5-24.4-6.7l-2.3-.4-.3-4c-.4-4.6-1.2-7.7-2.8-10.6-.6-1.1-1.1-2.1-1-2.2,0-.1,2.3-.7,4.9-1.3,6.3-1.5,15.3-2,19-.9,3.2,1,6.6,4,8.3,7.4,1.4,2.8,1.9,2.5,1.1-.5-1.4-5-5.9-8.4-12.2-9.3-4.8-.6-13.4.4-20.5,2.5l-2.2.6-2.1-1.6c-3.4-2.6-12.2-6.5-14.6-6.5s-1.3-.9-2.2-2.4c-3.8-6.6-8-8.7-19.1-9.2-5-.2-5.3-.3-9.7-2.4-3.6-1.8-5.6-2.4-10.6-3.4-3.4-.7-6.9-1.3-7.9-1.3-1.5-.1-1.8-.3-2.1-1.2-2-7.4-5.7-16.4-9.1-22.2-6.4-10.9-19.7-20.6-33.5-24.3-4-1-12.3-1.8-11.8-1,0,.2,2.4,1.2,4.9,2.1,6.3,2.3,16.5,7.3,21.5,10.6,4.1,2.7,10.6,8.5,12.4,11l.9,1.3-1.6-.9c-.8-.5-3.2-1.5-5.3-2.2-2.1-.8-5.1-1.9-6.8-2.5-9.2-3.4-25.4-6.1-41.2-6.8-5.9-.3-8.2-.5-7.8-.9.6-.6,17.7-3,23.2-3.3,4.3-.2,6.6-.5,7.1-.9,3-2.5-3.3-4.1-12.4-3.2-5.2.5-14.2,2.9-18.2,4.8l-2.3,1.1-2.9-1.6c-3.9-2-11.8-5.2-16.9-6.7-14-4.2-29.9-4.5-40.6-1-6.5,2.2-9,4.2-6.3,5.2,1.8.6,7.7.5,16.4-.3,9.9-.9,16.9-.4,26,1.9,9.6,2.4,16.3,5.4,30.1,13.3,11.1,6.4,13.1,7.4,18,9,6.5,2.2,10.9,1.7,10.9-1.3s-1.1-2.6-3.6-3c-1.1-.1-3.1-.7-4.4-1.1-2.5-.8-11.6-5.4-11.4-5.6.3-.2,13,1.2,18,2.1,11.3,2,22.2,5.6,27,8.9,4,2.8,10.5,10.4,14.1,16.5l1,1.6-6.2.3c-6.9.3-18.4,2-24.9,3.7-2.3.6-4.4,1.1-4.5,1.1v-3.4c.2-5.3-1.8-10.9-3.3-9.2-.3.3-1,2.4-1.5,4.7-2.1,9-5,14.2-8.8,15.7-2.8,1.1-9.9,1.4-13,.5-3.1-.9-8.3-4-17.1-10.3-12.3-8.8-21.5-14.8-24.3-15.8-2.2-.8-2.8-1.2-2.8-2,0-3.2,1-9.2,2.2-12.7,1.5-4.5,1.6-4.7.8-4.7-1.7,0-6.1,5.7-7.6,9.8-.5,1.3-1,3.6-1.2,5.1-.4,3-.2,2.8-4.8,3.3-3.2.3-13.5,3-17.6,4.5-1.7.6-4.5,2.1-6.4,3.2-3.9,2.4-7.3,3.3-9.9,2.6-2.1-.6-2.1,0,0,1.2,1.1.6,3.8,1.3,8.5,2.1,7.7,1.3,8.7,1.7,15.9,5.8,2.8,1.6,6.1,3.3,7.4,3.9,1.3.6,2.4.7,2.4,1.6s-3.5,4.7-8.3,9c-3.9,3.5-4.3,3.8-6.6,4.1-3.4.5-4.4,1.2-1.6,1.2h2.2l-1.3,1.1c-.9.8-6.2,2.2-8.8,2.8-5.7,2.1-8.4,3.1-12.8,6.1,6.8-1.8,15.4-5,17.1-5s.3.6-1.5,2.6c-3.4,3.7-6.9,9.1-9.7,15-2.7,5.6-7.9,20.6-7.9,22.7s1.2.7,6-9.6c5-10.5,12.3-21.4,19.3-28.6l3.9-4c18.4-2.1,27-2.1,54.3-.8,1.2,0,1.2-.1,0,4.4-.4,1.3-.8,3.3-1,4.4-.3,1.9,0,2.1.6,2.1s1.5-.7,2.4-2.1c.8-1.2,2.5-3.5,3.9-5.2,2.9-3.6,2.3-3.5,13.6-2.1,15.5,1.9,30,4.8,42.7,8.5,5.2,1.5,6.1,1.4,6.1.7s-1.6-1.3-9.3-3.4c-12.3-3.5-27.2-6.3-41.7-8l-6.9-.8,1.3-1c6-4.9,17.1-6.4,29.4-4,4.5.8,13.4,3.9,21.8,7.4,5.5,2.3,6.9,3.2,12.9,7.7,10.2,7.8,17.9,11.1,24.5,10.7,1.8-.1,3.7-.4,4-.4.8-.2,3.3,6.6,4.3,11.4.7,3.1,2.3,16.7,2,16.9,0,0-1.2.6-2.6,1.3-1.3.7-3,1.7-3.7,2.3-1.8,1.6-13,8.2-15.9,9.5-4.9,2.2-11.3,2.5-18.2.9-4.3-1-10.4-3.4-21.1-8.3-9.7-4.4-14.2-7-13.5-7.6.6-.5,10.8-3.5,19.3-5.7,9.9-2.5,17.2-3.8,23.3-4.2,3.7-.3,4.7-.4,4.7-1s-.8-.6-4.7-.6c-7.8,0-21.4,2.9-37.6,7.8-6.9,2.1-7.7,2.3-9.2,1.8-2.4-.8-12.5-.3-16.9.9-13,3.5-31.2,15.8-41.6,28.3-1.2,1.5-4.8,4.8-7.9,7.3-5.7,4.6-13.8,12.6-15.8,15.5-.6.9,1.2-.5,3.9-3.2,2.7-2.6,6-5.7,7.4-6.8,5.2-4.3,6.9-5.6,6.5-4.9-.2.4-1.8,2.7-3.4,5.2-9.6,14.5-15.7,26.8-18.9,37.9-1.7,5.8-3.8,16.6-4.8,24-1,7.9,0,13.1,2.5,13.9,1.2.3,3-.8,3.2-2.1.2-.8,1-1.2,4.6-2.4l4.4-1.5-1.8-1c-1.4-.9-2.4-1-4.3-.9-2.8,0-2.7.3-1.9-5.2l.5-3.5h2.5c1.3,0,3.2-.2,4.2-.5s1.9-.4,2-.3c0,0-.1,3.9-.5,8.5-.8,10.3-1,28-.2,34.1,1.9,15,7.4,33.8,9.6,32.5.7-.5.4-5.7-1.3-20-1.6-13.4-1.7-15.1-1.7-27.6s.3-16.3.6-19.9c.7-7.9,3.1-30.4,3.3-30.4,0,0,.9-.8,2-1.7,2.3-1.9,4.2-2.2,7.2-.8,1.7.8,1.9,1.1,2.8,4,.5,1.7,1.2,4.2,1.5,5.6.8,3.6.3,13-1.2,21.4-1.8,10.4-1.8,20.7,0,32.3.7,4.6,1.8,9.8,2.4,11.7,1.5,4.5,4.9,11,8.1,15.5,3.6,5,9.7,11.3,10.8,11.1.5,0,.8-.5.8-.9,0-.7-1.2-.8,2.4-.8s7.6-1.2,12.6-3.7l4.5-2.2-3.4.2c-1.8.2-5.1.7-7.2,1.2-2.1.5-5.3,1.1-7.2,1.2l-3.4.2-1.8-3.1c-1-1.7-2.1-3.5-2.4-4-.6-1-.5-1,2-1,1.5-.1,3.7-.5,5-1,3.1-1.2,12.5-7,11.6-7.2-.4-.1-3.1.7-6,1.7-7.4,2.7-9.4,3.2-12.3,3.2s-2.7-.2-3.2-.8c-.8-.8-4.9-8.3-4.9-8.8s-2.2-.3,1.5-.3,8.8-2.2,14.2-6.2c1.9-1.5,4-3,4.6-3.4l1.1-.8-1.4.3c-.8.1-3.4,1.2-5.9,2.3-6.3,2.8-10.7,4.2-13.5,4.2h-2.4l-.7-3.3c-.4-1.8-.9-4.4-1.1-5.8l-.4-2.5h3c1.7,0,3.8-.3,4.8-.6,1.9-.6,13.7-6.6,13.7-7.1s-4.1.4-9.5,2.2c-4.4,1.4-6.3,1.9-9,1.9h-3.4s-.2-5.3-.3-5.3v-5.3l1.3.4c.7.2,3.4.4,6,.4h4.7l5.2-2.4c2.8-1.3,5.8-2.7,6.5-3l1.4-.7h-1.4c-1.8,0-5.3.6-9.1,1.8-3.1,1-11.3,1.3-13.3.5q-1.1-.4-.7-4.4c.3-2.2.6-4.2.6-4.2,0,0,1,.2,1.9.5,2.6,1,12.3.8,15.7-.2,2.9-.9,12.7-5.6,12.3-6,0-.2-2.8.5-6,1.4-5,1.4-6.7,1.7-11.9,1.9-6.8.3-11.3-.7-11.3-1.5s1-7.1,1.2-7.3c.1,0,1.3.3,2.7.8,4.1,1.5,9.9,1.3,16.7-.6,3-.9,6.3-1.7,7.4-1.9,1.4-.2,1.8-.4,1.4-.7-.9-.6-4.5-.4-10.9.4-6.4.9-12,.5-15.4-.9l-1.7-.7v-4c0-2.3,0-4.4-.3-4.9-.3-.6.2-.5,1.5.6,3.1,2.4,5.9,3.4,9.2,3.4s3.8-.3,12.2-3.2c2.2-.8,5.2-1.6,6.8-1.9,2.8-.6,2.9-.5,3.7.4,1.2,1.5,1.8,4.3,1.8,8.4-.1,4.7-.5,7.7-3,18.4-3.3,14.5-4.5,22.4-4.5,32.2s0,7,.3,7.2c.6.7,1.2-.5,1.9-4.3,1.4-7.5,5.6-25,9.3-38.8,1.2-4.4,2.7-13.6,2.7-16.5s.5-2.1,3.1,8.2l2.3,9.1-.7,2.8c-.8,3.3-3.2,12.6-5.7,22.2-2.5,9.8-2.8,11.6-2.8,18.1.1,6.6,1,10.9,3.4,15.9,2.5,5.1,8.1,9.6,14.3,11.6,3.9,1.3,4,1.5,4.4,7.8l.3,5.5-2.6,1.3-2.6,1.3-1.3-1c-1-.7-1.9-.9-3.9-.9q-2.9.1-.6-2.7c2-2.6,4.2-6.9,4.2-8.4s-1.8-3.5-3.1-3.5-2,.4-3.4.9c-1.4.4-6.6,1.7-11.7,2.7-5,1-10.5,2.1-12.1,2.5-4.4.9-5.1.8-10.1-1.7-5.5-2.8-8.6-5.1-12.6-9.4-8.1-8.8-12.4-24.7-13.4-49.9-.5-13.1-1.2-16.9-2.9-16.2-1.9.7-3.1,8.2-3.1,19.1,0,19.6,4.1,37.1,11.1,47.4.7,1.1,2.8,3.5,4.5,5.3,1.8,1.9,2.9,3.3,2.5,3.3s-1.1.4-1.5.9c-1.3,1.4-.6,4.7,1.9,9.6,1.9,3.6,2.9,4.9,7.4,9.4s8.4,7.4,12.5,8.1c3.3.5,5.6,0,10.2-2.3l3.6-1.8,1,.9c2.4,2.2,7.3,3,10.6,1.6,1-.3,2.5-1.4,3.4-2.3l1.7-1.6,1.2,1.2c2,1.8,3,2.2,6.2,2.2h3v3.4c0,3.6.9,5.9,2.6,6.9.4.2.6.5.4.7-.2.1-4.5.4-9.7.5-25.7.6-46-5.5-58.4-17.6-7.1-6.9-11.8-13.3-18.5-25-8.7-15.2-11.8-22.7-15.4-36.8-1.9-7.5-2.7-9-4.5-8.4-1.5.5-2.3,2.9-2,6.2.3,3.7,2.5,12.4,4.5,18.4,2.5,7.6,11.9,26.1,17.4,34.2,6,8.9,15.2,18.7,21.6,22.9,12.7,8.3,31,12.9,52.1,12.9s18.7-.8,23.5-3.3c1.6-.8,1.9-.8,2.9-.3.9.5,1.1.8.9,2.2-.4,2.3-3.5,8.2-7.2,13.8-4.1,6-15.9,21.9-15.5,20.7.2-.5.5-1.7.6-2.7.2-1.6,0-2-1.2-3.2-1.3-1.3-1.4-1.3-2.5-.7-.8.5-1.5,1.7-2.6,5-1.7,5-6.8,15.9-9.7,20.5-3.2,5.2-7.2,10.1-11.2,13.6-2.1,1.8-4,3.2-4.3,3.2-.2-.1-.6-1.2-.6-2.4-.2-3.3-1.7-9.1-3.5-13.8-3.6-9.4-11.5-22.8-15.9-27.1-2.6-2.6-7.3-6.2-8.1-6.2s-.6-4.7-.6,2.7,5.4,22.6,8.1,23c1.3,0,1.3-1,0-7.3-.6-2.7-1.2-4.9-.9-4.9s4.8,7.8,7,12.2c5.1,10.3,7,16.3,7.6,23.9.3,4.8.4,5.2,1.6,6.2l-1.2-.2c2.7,2.3,6.5.3,13.9-7.3,5.5-5.7,9.7-10.8,12.7-15.4.9-1.5,4.3-5.4,7.4-8.6,14.7-15.2,26-30.4,30.1-40.5,1.8-4.3,1.9-6.5.7-8.9l-.9-1.7,3.5-1c5.8-1.7,12.3-5.1,14.6-7.7,3.1-3.3,3.8-6.7,2.2-9.4l-.9-1.5,2.1-3.7c3.6-6.5,8.6-16.9,9.4-20,.6-2.4.7-3.2.3-4.1-1.3-3-4.7-2.6-13.7,1.6-3.3,1.5-8.1,3.8-10.7,5-2.5,1.2-4.7,2.2-4.8,2.2s0-.9.5-2.1c3.3-10.7,5.2-21.8,6.5-37.6,2.8-34.7,2.7-61-.3-82.8l-.8-5.5,1.3-3c.7-1.6,1.6-4.6,2-6.7.4-2.1,1-3.7,1.2-3.7.6,0,1.4,1.6,3.7,6.8.9,2.1,1.9,3.9,2.3,4,1.1.5,3.3-1.2,5.4-4.2l2.1-2.9,1.8,4.2c8.3,19.8,15.3,45.7,18.4,67.7,1.7,11.6,1.9,15.3,2.2,30,.3,15.3-.4,25-2,31.2-.9,3.3-.4,4.9,1.5,5.6,1.7.7,5.6-1.4,7.3-3.8,5.2-7.4,13.1-24.6,17-37.3,3.8-12.1,5.2-21.6,5.6-36.7.3-12.2-.4-33.9-1.4-41.5-1.3-10.3-6.2-32.2-8.3-37.6l-.8-2.2,3.1-3.3c3.9-4.2,7.1-10.5,9.9-19,1-3.3,2-6.2,2-6.2,0-.2,7,2.8,11.5,5.1,12.3,6.1,20.1,13.2,24.4,22,2.2,4.6,3.2,8.2,3.2,12.1s.8,2.3.8-2c.1-6.1-2.5-12.5-7.2-18.5-3.1-3.9-6.7-7-12.3-10.7-4.1-2.7-12.7-7.2-17.2-9-1.4-.5-2.6-1.2-2.6-1.5s.3-1.8.7-3.4c.4-1.7.8-5.1,1-7.6.2-3.3.6-4.6.9-4.6s3.3.5,6.6,1.1c12.9,2.4,19.9,5.2,24.8,10.1,3.7,3.7,5.1,6.2,5.1,9.4s.1,2.3.6,1.6c.9-1.2.5-4.9-.8-7.6ZM269.9,52.2c1.4,0,5.1,2.4,6.1,3.8,1,1.5.8,3.3-.6,4.8h0c-1.6,1.6-2.6,1.8-5.3,1-2.6-.8-5-2.4-5.4-3.7-.7-2.3,2.5-5.9,5.2-5.9ZM293.7,73.5h-.1c-.9,1.2-1.1,1.2-3.5,1.2-14.4-.6-30.3-1.8-52.6.7l12.6-11.8,1-1.4,3.8,1.6c7.2,2.9,12.6,4.6,16.8,5.3,3.3.6,22.1,3,22.8,3s-.3.7-.8,1.4ZM247.1,215.2c-.4,2.8-.8,5.3-.8,5.3,0,0-.7-.2-1.3-.7-1.3-1-5-1.9-6.1-1.5-.8.3-.8-.2.4-5.4.4-1.9.7-2.2,1.4-2.2s2.2-.1,3.8-.4,3-.3,3-.3c0,0-.2,2.4-.5,5.2h0ZM248.2,205.3c-.2,1.2-.4,2.3-.5,2.4-.1,0-.7-.1-1.3-.4-.6-.3-2.1-.7-3.3-.9-1.9-.3-2.1-.5-1.9-1.3.2-.5.3-1.2.3-1.5s1-.6,3.5-.6h3.5l-.3,2.3ZM249.3,196.8c0,1.3-.4,2.8-.5,3.2-.3.9-.7,1-1.4.3-.2-.3-1.4-.7-2.5-1l-2-.5.7-1.6c.5-1.5.8-1.7,2.5-1.9,1-.2,2.2-.4,2.7-.6.7-.3.8-.2.5,2.1ZM250.2,190.2c-.5,2.2-.5,2.3-1.6,1.7-.6-.3-1.5-.7-1.9-.8-.7-.2-.7-.4-.1-1.6.5-.9,1.1-1.4,2.3-1.6.9,0,1.7,0,1.7,0,0,0,0,1.1-.4,2.4ZM251.9,181.5h-.1c-.3,1.5-.7,2.9-.7,3.1s-.4,0-.9-.3c-.8-.6-.8-.7.6-3.1.8-1.4,1.5-2.5,1.6-2.5s-.2,1.2-.5,2.8ZM306.1,320.9c-1.3,1-3.7,2.5-5.4,3.4v-.2c-1.7.9-3.2,1.6-3.3,1.6-.7,0-7.9-4.6-9.9-6.3-2.4-2-5.8-6.1-5.4-6.5.2,0,1.4,0,2.7.3,3.4.7,9.9.2,16-1.2,9.5-2.2,17.5-3.8,17.7-3.6.3.3-9.6,10.3-12.4,12.5ZM320.3,324.6h0c-3.5.9-7,.7-7.4-.4,0-.2,1-1.4,2.3-2.5,2.2-1.9,2.6-2.1,5.7-2.4,1.9-.3,3.2-.2,3.1,0-1.2,2.9-2.7,5.1-3.6,5.3ZM316.2,126.8c3,0,3.5.2,4.7,2.1.5.8.8,1.7.8,1.7-.4.3-6-2-6.9-2.9l-.9-.9h2.3ZM307.6,129.1c.2-.2,1.2-.7,2.1-1.1l1.7-.7,2,2.3c1.1,1.3,2,2.5,2,2.7h0c0,.8-1.7.4-4.9-1.2-1.8-.9-3.1-1.8-2.9-2ZM302.1,131c.9-.4,1.7-.7,1.8-.7s1,1.1,2,2.3,1.6,2.2,1.3,2.2c-.8,0-5.9-2.2-6.4-2.7s.3-.7,1.3-1.1ZM293.8,134.8c.8-.4,1.8-.8,2.2-.8s2,1.2,3.6,2.7h0c1.6,1.4,2.8,2.6,2.7,2.6-1.1,0-6.7-2-8.2-2.7l-1.9-1,1.6-.8ZM285.7,138.9l2-1,3.4,2.7c1.9,1.5,3.8,2.9,4.3,3.2h-.1c.8.4.7.4-.7.4-3.7-.1-10.2-2.4-10.7-3.8-.1-.2.7-.9,1.8-1.5ZM279,143.7c.8-.8,1-.7,3.6.7,1.5.8,3.7,1.9,4.8,2.3h0c2.4,1.1,1.5,1.1-2.4.3-1.5-.3-3.7-.7-4.8-.9-2.3-.3-2.6-1.1-1.2-2.4ZM267.8,155.1c1.4-1.8,1.9-2.2,3.7-2.4,2.6-.4,6-.7,6,0s-1.5,5.9-2.1,7.5c-.7,2-1,2.1-2.1.9-1.3-1.5-4.2-3.3-5.7-3.6l-1.4-.3,1.6-2.1ZM265,187.4c-1.6-1.1-3.8-2.2-4.9-2.5-1.9-.5-2-.6-1.9-1.9.2-1.8,1.8-2.1,4.5-.7,3.3,1.7,6.7,5.6,6,6.8h0c-.4.6-.7.5-3.8-1.7ZM285.5,189.7v1.3l-1.6-1.6c-.9-.9-2.9-2.9-4.5-4.6-5.1-5.3-13.4-10.2-17.6-10.2h-2l.3-1.5c.4-1.8.3-1.8,2.6-1.8,5.9,0,17.5,8,21.5,14.7h0c1,1.6,1.4,2.9,1.2,3.7ZM294.4,178.3c-1-1.2-2.6-3.3-3.7-4.7-2.2-2.8-5.9-6.1-8.5-7.7-.9-.6-1.8-1.1-1.8-1.1-.3-.2.8-2.9,1.4-2.9s3.3,1.8,6,4c2.6,2.1,5.8,6.4,7.7,10.4,2,4.2,1.4,5.2-1.1,2ZM296.5,159.1c-.4-.3-2.3-1.6-4.3-2.7l-3.6-2.1h3.5c1.9,0,3.5,0,3.5.2s.5,1.3,1.1,2.7c1.1,2.5,1.1,3.1-.2,1.9ZM325.6,290.8c-5.4-4.5-7.8-14.8-6-25.2,1-5.5,5.8-21.3,6.2-20.2,1.3,3.5,5.6,28.6,7.2,42,.5,4.3.8,8,.8,8-.2.3-6.8-3.4-8.2-4.6ZM335.4,323.3h-.1c-.8.5-5.4.7-6.3.3-2.2-.9-.6-3.3,2.5-3.7,1.2-.2,2.6-.4,3.2-.6,1-.3,1-.2,1,1.7s-.1,2.2-.3,2.3ZM367.6,329.9c0,0-2.4,1-5.1,2.1-2.7,1.1-7.2,2.9-10.1,4-2.8,1.1-6.1,2.4-7.3,2.9h0c-1.1.6-2.9,1.1-3.8,1.3l-1.7.3,2.2-1.5c3.3-2.2,5.8-6.1,9.1-14,.7-1.6,1.4-3.1,1.4-3.1,0,0,1,.4,2.1,1,3.2,1.8,6.9,2.7,12.2,2.7s4.9.2,4.9.5c0,.5-3.4,3.8-3.8,3.8ZM360.7,306.6c3.6,0,7.9-1.5,14.5-4.7,2.8-1.3,5.4-2.5,5.8-2.7,1.4-.6-9,19-10.6,20h-.2c-.7.5-5,.3-8.4-.3-3.3-.6-7.2-2.3-7.2-3.2s.7-2.5,1.6-4.8l1.6-4.3h2.9ZM360.4,249.3c-1.6,23.4-2.7,32.1-5.5,42.9-2.2,8.6-6.8,21.8-10.2,29.1h-.1c-.9,2-1.8,4-2.1,4.6s-.5-.3-.5-5.6c0-21.1-4.3-52.4-10.5-79.3-8.9-38.2-12.4-48.8-26.4-80.8-1.6-3.6-2.9-6.2-2.9-7.7s4.2-6.6,7.5-9.1c6.4-4.9,10-6.4,17.4-7.2q4.4-.5,10,1.2c7.9,2.3,9.2,3,10.5,5,6.4,10.2,10.2,24.2,12.8,48,1.2,10.4,1.2,42,0,58.9ZM366.5,154.4h0c-1,4.3-2,8.8-2.2,9.9l-.4,2-1.1-4.3c-1.3-5-3.1-10.3-5-14.6-1.2-2.7-1.2-3-.5-2.8,2.2.7,7.3,1.6,9,1.6s1.9,0,1.9.2-.8,3.7-1.8,8ZM382.7,149.3c-.2,3.3-1.7,8.6-3.4,12.1h0c-.9,1.7-1.7,3.2-1.7,3.2,0,0-.5-1.4-1.1-3.2-.5-1.7-1.6-4.5-2.4-6.1-1.2-2.6-1.4-3.2-1.1-5.5.5-4.2.4-4.1,3.8-4.1s3.6.3,4.6.8,1.6.9,1.4,2.8ZM399.8,91.8l-.6,1.5-.5-1.3c-.9-2.4-6.3-10-10.1-14.3-4.6-5.2-6.8-6.5-10.6-6.2-2.5.2-4.1,1.1-5.7,3.2-.8.9-.9,1.9-.9,3.9v2.7l-1.4-1.1c-6.1-4.9-10.4-7.1-22.9-11.8-7.2-2.7-12.3-4.2-17-4.8-6.7-.9-6.8-1-2.4-2.4,2.2-.7,5.9-1.5,8.4-1.9,17.4-2.6,16.9-2.6,24.4-2.3,4,0,9.1.5,11.5.8l4.3.5-3.4.3c-4.1.4-6.4,1.2-9.7,3.2-3.6,2.2-6,5.1-6,6.9s1.2,3,2.8,3,2.2-.9,3.6-1.9c1.4-1,4.4-2.8,6.7-3.9l4.2-2.1h10.7c17.8,0,23,1,25.6,5.3l1.3,2.2-.9,1c-1.4,1.5-3.9,6.9-4.9,10.4-.7,2.7-1.1,3.4-3.2,5.3h-.3c-1.3,1.3-2.7,3-3,3.8ZM399.9,130c.3,0,1.7.8,3,1.8,2,1.5,2.4,2,2.4,3.2s-.2,1.3-.2,1.2c0-.1-1.2-1.4-2.5-2.8l-2.3-2.6v2.1c0,1.1-.3,2.7-.7,3.4h.1c-.4.8-.5,1.4-.9,1.4s-2.5-3.2-2.5-4.1,2.7-3.6,3.6-3.6ZM396.6,162c2.4-4.7,3.8-12.6,2.8-16.1-.6-2.2-.2-2.9,3.1-2.9s3.8.6,3.5,4.6c-.4,5.6-3.5,11.6-7.5,14.7h0c-2.5,1.8-3,1.8-1.9-.3ZM392.6,136.5l1.8-1.8v1.6c0,.9-.3,2.1-.8,2.8l-.8,1.2-2-2,1.8-1.8ZM386.3,141.7c0-.2.4-.6.9-.9,1-.5,1.3,0,.4.8-.7.6-1.3.7-1.3.1ZM391.5,159.3c-.4-1-1.5-2.8-2.4-3.9-1.6-2-1.6-2.1-1.1-4.3.3-1.3.5-1.2.5-3.5s4.3-3.2,5.6-1.2c1.1,1.6,1,7-.2,10.9h-.1c-.5,1.8-1,3.3-1.2,3.5,0,.2-.6-.5-1.1-1.5ZM426.2,181.4c1.9,12.9,2.8,29.2,2.1,39.5-1.3,19-2.2,27.8-3.9,34.3-1.3,5.3-4.8,15.4-7.2,20.8-1.3,3-3,6.6-3.7,8l-1.3,2.6v-15.2c-.1-16.1-.5-22.9-2.3-35.6-2.9-20.6-9.3-45.2-15.9-61.2-1.6-4-1.7-4.5-1.1-5.1.6-.6.8-.6,1.9,0,1.2.6,1.4.5,4.8-1.9,5-3.6,5.7-4.3,8-8.7,2.2-4.2,3.3-8.1,3.6-12.4,0-1.6.4-2.7.8-3,1.1-.7,4.8-.5,5.4.2,1.1,1.3,7.4,28.3,8.8,37.7ZM408.5,136.2c.4.4.8.8.8.8,0,.4-.4.2-1-.6-.5-.7-.5-.8.2-.2ZM426.2,96.5l10.2.3v2.5c0,2.2-1,10.3-1.5,11.6-.1.3-2.6,0-7.1-1.3-7.8-1.9-14.6-2.5-14.6-1.2s.8.8,3.4,1c1.8.1,4.8.6,6.5,1,2.9.6,10.6,2.9,11,3.2.3.2-3.7,11.5-5.2,14.9-1.7,3.7-5.8,9.9-7,10.5l.3.3c-1,.5-.8.5-2.7-.4-.9-.4-2.6-2.1-3.8-3.7-3-4-4.6-5.6-7.9-7.7-1.5-1-2.8-1.9-2.8-2.1s.3-1.1.7-2.2c2.3-6.6,1.4-16.3-2.3-24.4-.8-1.8-1.5-3.3-1.5-3.5s-.9-.2,1-.2,8.4-5.1,11.6-9.1c1-1.2,2.1-3.1,2.5-4.3.4-1.2,1.2-3,1.6-4.1.4-1.1.8-1.7.8-2.4s.4-.6,4.3,1.1c3.9,1.6,7,3.3,7,3.8s-1.2.9-2.6,1.6c-4.2,2.1-10.2,6.6-9.5,7.3.1,0,3.3-1.6,7.1-3.7l6.9-3.9.8,1.1c1.4,1.8,2.6,5.6,2.9,9.3l.3,3.5-4-.4c-4.2-.4-14.7.2-15.9.9-.5.2,3.1.5,9.5.7Z" sodipodi:nodetypes="csssssscsssssssssssssssssssssssssscscsscssscsssssssscsssssssssscscccssscsscscssssssssssssscsssssssssssssssssscsscsscccssssccsscssscssssscsssssscssscsssssssssssssscssssscscssscssssssssssssssssssssssssssssssssscssssssssssscssssscccscsssssssssssssssscsssssssssscssssssssssssssscssssssssscsssscssssssssscsscsssssscssssccsscscscsscssccscsssssssssscssscsscssssssssscssscsssssccsssscssssscssssscssssssssssssssssssssssssssssssssssssscssssssssssscsscsssssssssccsccsssssssssscsccssssssssscsssccssssccssscssscssssssssssssssssssssssssscssscssssssssssssssssssccscscsscssssssssssssscsssssssssscsscsscssssscccccccscsssscsssssssssssccssscsscscsssssscsssscssssssscssssssssssssscsssscssscsssssscsssssscsscsssssscsssssssccsssscsssssssccssssscssccssssssssssssssscssssssssssssssssssssssssssssscssssssscsssssssssssssssssscssssssssssssscssssssssssssssssssscsssssssssssccssscsssscssssscsssssscssscsscsssssssssscsssssssssssssscssssscssssssssssssssssssssssssscsssssscsssssssssssssscssssssssssss"/>
      <path id="eye" class="st0" d="M275.4,60.8h0c-1.6,1.6-2.6,1.8-5.3,1-2.6-.8-5-2.4-5.4-3.7-.7-2.3,2.5-5.9,5.2-5.9s5.1,2.4,6.1,3.8c1,1.5.8,3.3-.6,4.8Z"/>
    </g>
  </g>
</svg>